<svg id="Byrd" xmlns="http://www.w3.org/2000/svg" width="391.6" height="391.8" viewBox="0 0 391.6 391.8">
  <path id="Path_1" data-name="Path 1" d="M199.4,176.5s-48.2,57.4-21.6,145.1c0,0,32.4,76,65.8,95.8l13.3,24L369,368.2s23.2-58.9,25.6-64.7-20.3-74.6-23.7-82.2-37.2-54-37.2-54l-51.5-34.7-44.8,9.3Z" transform="translate(-30.5 -52)" fill="#fff"/>
  <path id="Path_10" data-name="Path 10" d="M224.9,407c-24.6-31.4-39.6-64.1-47.3-83.8-.2-.8-.4-1.7-.6-2.5-1.2-5.1-2.3-10.4-3.3-15.8l-25.7-32-4-31,20.6-30.7s-5-28.4-.7-25.7c0,0,11.9-43.4,83.6-67.9,63.8-21.7,113.8,9.4,137.2,49.8-1-15.8-2.8-29.7-4.5-40.6A195.529,195.529,0,0,0,226.3,52C118.2,52,30.5,139.7,30.5,247.9A195.441,195.441,0,0,0,108.1,404C154,411.3,192.5,411.8,224.9,407Z" transform="translate(-30.5 -52)" fill="#002d4f"/>
  <path id="Path_11" data-name="Path 11" d="M173.7,305c-.2-1-.3-1.9-.5-2.9C173.5,304,173.7,305,173.7,305Z" transform="translate(-30.5 -52)" fill="#002d4f"/>
  <path id="Path_12" data-name="Path 12" d="M177,320.8c.2.8.4,1.7.6,2.5,7.7,19.7,22.7,52.3,47.3,83.8,4.3-.6,8.5-1.4,12.6-2.2-39.7-39.6-59.6-83.3-59.6-83.3Z" transform="translate(-30.5 -52)" fill="#ffe000"/>
  <path id="Path_14" data-name="Path 14" d="M384.7,167.4c-23.4-40.4-73.5-71.5-137.2-49.8-71.8,24.4-83.6,67.9-83.6,67.9-4.3-2.7-62,31-62,31l49.3,14.7L117,237.7,173.8,305s-.2-1-.5-2.9c-2.8-17.7-13.8-112.6,70.2-139.2,92.8-29.4,68.9,72.3,68.9,72.3s-14.3,61.2,29.1,109.7c18.9-23.7,30.3-51.6,36.7-80C385.9,230.7,386.5,196,384.7,167.4Z" transform="translate(-30.5 -52)" fill="#0081f1"/>
  <g id="Group_3" data-name="Group 3" transform="translate(-30.5 -52)">
    <path id="Path_15" data-name="Path 15" d="M224.9,407c-32.3,4.8-70.9,4.3-116.8-3A195.821,195.821,0,0,0,257,441.4,251.121,251.121,0,0,1,224.9,407Z" fill="#002d4f"/>
    <path id="Path_16" data-name="Path 16" d="M392.2,183a177.188,177.188,0,0,0,29.3,49.5,194.538,194.538,0,0,0-41.4-105.6c1.7,10.9,3.5,24.8,4.5,40.6A96.636,96.636,0,0,1,392.2,183Z" fill="#002d4f"/>
    <path id="Path_17" data-name="Path 17" d="M341.4,344.9c-22.5,28.1-55.6,50.3-103.9,60a246.177,246.177,0,0,0,39.6,32.3,196.09,196.09,0,0,0,99.9-64A140.03,140.03,0,0,1,341.4,344.9Z" fill="#efefef"/>
    <path id="Path_18" data-name="Path 18" d="M237.4,404.8c-4.1.8-8.3,1.5-12.6,2.2a257.5,257.5,0,0,0,32.1,34.4,190.439,190.439,0,0,0,20.2-4.3A246.074,246.074,0,0,1,237.4,404.8Z" fill="#ffe000"/>
    <path id="Path_19" data-name="Path 19" d="M392.2,183a112.1,112.1,0,0,0-7.6-15.6c1.8,28.6,1.2,63.3-6.6,97.5,10.9,18.3,21.4,36.9,30.4,54.9a195.276,195.276,0,0,0,13.7-71.9c0-5.2-.3-10.4-.7-15.5A183.986,183.986,0,0,1,392.2,183Z" fill="#0081f1"/>
    <path id="Path_20" data-name="Path 20" d="M341.4,344.9A137.675,137.675,0,0,0,377,373.1a191.857,191.857,0,0,0,31.5-53.3c-9.1-18-19.5-36.6-30.4-54.9C371.7,293.2,360.3,321.2,341.4,344.9Z" fill="#0081f1"/>
  </g>
  <path id="Path_21" data-name="Path 21" d="M108.1,404.1c.2-.6.7-.2,1-.2,9.9,1.6,19.8,2.8,29.7,3.8a409.318,409.318,0,0,0,44.3,2.1,296.938,296.938,0,0,0,53.2-5.2,199.677,199.677,0,0,0,47.2-15,160.441,160.441,0,0,0,47.7-33.8,165.542,165.542,0,0,0,28.2-39.7,210.765,210.765,0,0,0,18.1-50.4,303.3,303.3,0,0,0,5.5-32.8,347.832,347.832,0,0,0,2.1-43.3c-.1-12.5-.8-25-2.1-37.4-.8-8.2-1.8-16.4-3.1-24.6,0-.2-.2-.6.2-.7.5.1.7.5,1,.8a192.415,192.415,0,0,1,17.6,27A201.075,201.075,0,0,1,413,188.1a207.589,207.589,0,0,1,7.6,33.9,121.17,121.17,0,0,1,1.1,14.7c0,1,.1,2.1.1,3.1v2.8a16.2,16.2,0,0,0,.1,2.2v6.5a6.473,6.473,0,0,0-.1,2.4v3a140.607,140.607,0,0,1-2.6,25.1A202.917,202.917,0,0,1,409,318.4a171.721,171.721,0,0,1-8.7,19.6,188.56,188.56,0,0,1-15.4,25c-3.7,5.1-7.7,10.1-11.9,14.9-3.7,4.2-7.6,8.2-11.6,12.1A194.6,194.6,0,0,1,341,406.9a216.409,216.409,0,0,1-19.9,12.7,202.78,202.78,0,0,1-25.9,12,160.16,160.16,0,0,1-17.8,5.7,211.614,211.614,0,0,1-23.7,4.8,121.976,121.976,0,0,1-17,1.5c-1.4,0-2.9.1-4.3.1H220.1a170.4,170.4,0,0,1-37.6-4.6,188.905,188.905,0,0,1-30.2-9.5A197.622,197.622,0,0,1,110.2,406C109.3,405.3,108.4,405,108.1,404.1Z" transform="translate(-30.5 -52)" fill="#002d4f" opacity="0.4"/>
  <path id="Path_22" data-name="Path 22" d="M264.2,179.6c40.9,6.5,54.2,31.4,50,49,5.1-12.2,24.3-66.3-37.1-70.9-69.3-5.3-91.3,51.8-91.3,51.8.4-.3.7-.5,1.1-.8C198.6,195.9,230.3,174.2,264.2,179.6Z" transform="translate(-30.5 -52)" fill="#002d4f"/>
  <path id="Path_23" data-name="Path 23" d="M313.1,231.1s.4-.9,1.1-2.5c4.2-17.6-7-40.2-39-49-46.2-12.7-76.5,16.3-88.3,29C274.6,141.4,313.1,231.1,313.1,231.1Z" transform="translate(-30.5 -52)" fill="#ffe000"/>
</svg>
