<svg xmlns="http://www.w3.org/2000/svg" xmlns:xlink="http://www.w3.org/1999/xlink" width="512" height="512" viewBox="0 0 512 512"><defs><clipPath id="b"><rect width="512" height="512"/></clipPath></defs><g id="a" clip-path="url(#b)"><rect width="512" height="512" fill="#2391e9"/><path d="M-46.406,12.316H370L313.3,68.851H-30.744V225.408h187.93l-40.262,41.314H-30.744L-26.87,409.89-81,464.316v-452h34.594Z" transform="translate(112 17.684)" fill="#fff" stroke="#707070" stroke-width="1"/><path d="M335.406,464.316H-81l56.7-56.535H319.744V251.223H131.814l40.262-41.314H319.744L315.87,66.742,370,12.316v452H335.406Z" transform="translate(112 17.684)" fill="#54b1f0" stroke="#707070" stroke-width="1"/><path d="M-29.9,45.78,3.593,103.706H312.052V45.78Z" transform="translate(112 43)" stroke="#707070" stroke-width="1" opacity="0.04"/><path d="M312.052,103.706,278.561,45.78H-29.9v57.926Z" transform="translate(118.845 319.514)" stroke="#707070" stroke-width="1" opacity="0.04"/><path d="M2.875,102.053v95.082s-33.706,4.671-33.706,0V44.846Z" transform="translate(112 43)" opacity="0.08"/><path d="M-30.831,142V46.922s33.706-4.671,33.706,0V199.211Z" transform="translate(428.957 224.944)" opacity="0.08"/><path d="M156.96,199.211v45.8l-40.178,40.563V242.069Z" transform="translate(112 43)" opacity="0.04"/><path d="M116.782,285.576v-45.8l40.178-40.563v43.507Z" transform="translate(127.258 -15.786)" opacity="0.04"/><path d="M-29.9,242.393,5.234,286.23H116.782V242.393Z" transform="translate(112 43)" opacity="0.09"/><path d="M116.782,286.23,81.651,242.393H-29.9V286.23Z" transform="translate(314.115 -59.623)" opacity="0.09"/><path d="M4.907,286.23V412.524l-30.749-28.158-4.58-142.624Z" transform="translate(112 43)" opacity="0.1"/><path d="M-30.422,368.036V241.742L.327,269.9l4.58,142.624Z" transform="translate(426.515 -185.266)" opacity="0.1"/><path d="M-81,439h58.721l27.31-25.038-31.855-29.923Z" transform="translate(112 43)" opacity="0.15"/><path d="M5.031,384.039H-53.69L-81,409.077-49.145,439Z" transform="translate(476.969 -354.039)" opacity="0.15"/><path d="M312.052,103.706,370,47.433V-13L312.052,44.558Z" transform="translate(112 43)" opacity="0.02"/><path d="M370-13,312.052,43.273v60.433L370,46.147Z" transform="translate(-281.052 378.294)" opacity="0.02"/></g></svg>