<?xml version="1.0" encoding="utf-8"?>
<!-- Generator: Adobe Illustrator 24.1.2, SVG Export Plug-In . SVG Version: 6.00 Build 0)  -->
<svg version="1.1" id="Layer_1" xmlns="http://www.w3.org/2000/svg" xmlns:xlink="http://www.w3.org/1999/xlink" x="0px" y="0px"
	 viewBox="0 0 1080 530.6" style="enable-background:new 0 0 1080 530.6;" xml:space="preserve">
<style type="text/css">
	.st0{fill:#FFFFFF;}
	.st1{fill:#002D4F;}
	.st2{fill:#FFE000;}
	.st3{fill:#0081F1;}
	.st4{fill:#EFEFEF;}
	.st5{opacity:0.4;fill:#002D4F;}
</style>
<path class="st0" d="M199.4,176.5c0,0-48.2,57.4-21.6,145.1c0,0,32.4,76,65.8,95.8l13.3,24L369,368.2c0,0,23.2-58.9,25.6-64.7
	c2.4-5.8-20.3-74.6-23.7-82.2s-37.2-54-37.2-54l-51.5-34.7l-44.8,9.3L199.4,176.5z"/>
<g>
	<path class="st1" d="M538.8,77.4l-12.7,82.2c26.7,0,49.1-12.5,54.8-39.1h1.7L566,201h-1.7c4.7-24.2-11.7-39.6-38.1-39.6l-7,43.6
		c-5.2,33.4-6.5,42.8,26.4,42.8l-0.2,1.7H436.2l0.2-1.7c26.2,0,28.6-13.9,33.1-43.1l13-84.7c4.7-30.1,6.7-43.1-19.2-43.1l0.2-1.7
		H617l-3,60h-2.5c1.7-37.6-11.7-57.8-53.3-57.8C558.2,77.4,538.8,77.4,538.8,77.4z"/>
	<path class="st1" d="M635.9,134c0.7-5-3.2-8.7-10.2-6.5l-0.7-0.7c8.7-4.2,26.2-9.7,38.1-9.7c14.2,0,19.2,5.2,16.4,22.2l-9.5,57.3
		c-3,17.4-8.7,48.1,0.5,52.3l-0.7,0.7c-6.2,1.2-12.5,2-18.2,2c-18.9,0-33.9-8.5-28.6-39.1L635.9,134z M646.9,106.6
		c5.2-8.2,7.7-27.1,0.2-36.6c6-11,17.4-17.9,27.6-17.9c9.5,0,20.7,5.7,20.7,19.7c0,19.4-22.4,36.6-48.1,35.6L646.9,106.6z"/>
	<path class="st1" d="M715.6,69.7c0.7-5-3.2-8.7-10.2-6.5l-0.7-0.7c8.7-4.2,26.2-9.7,38.1-9.7C757,52.8,762,58,759.2,75l-19.4,121.6
		c-3,17.4-9,49.3-0.5,53.5l-0.7,0.7c-17.9,2.7-52.6,1.7-45.8-38.4L715.6,69.7z"/>
	<path class="st1" d="M858.3,135.2c0-9.7-6-16.2-14.4-16.2c-19.2,0-32.9,30.1-34.4,55.3c-1.5,26.4,8,49.6,35.6,49.6
		c11.5,0,26.7-4,38.4-17.7l1.5,0.7c-15.7,25.9-42.1,44.3-71,44.3c-30.1,0-51.6-19.9-51.6-53.3c0-42.6,36.4-81,83.7-81
		c19.4,0,47.8,4.7,47.8,27.9c0,18.4-21.4,42.6-82.7,26.4l0.2-1C845.1,172.1,858.3,152.9,858.3,135.2z"/>
</g>
<g>
	<path class="st0" d="M505.9,248.1c39.6,0,89.2,0.2,89.2,33.9c0,36.9-45.1,42.6-75,43.8l-0.2,0.5c24.2,0.2,73,6,73,40.1
		c0,41.1-48.3,56-85.9,56h-97.1l0.2-1.7c25.9,0,28.1-13.9,32.9-43.1l13.2-84.7c4.7-30.1,7-43.1-19.2-43.1l0.2-1.7L505.9,248.1
		L505.9,248.1z M490.2,391.6c-3.7,23.7-4,29.1,11.5,29.1c30.9,0,39.1-39.4,39.1-65.3c0-17.9-7.5-28.1-32.4-28.1h-8L490.2,391.6z
		 M507.7,325.4c30.4,0,39.6-22.7,39.6-50.6c0-15.9-7.2-24.9-28.1-24.9h-6.5l-12,75.5H507.7z"/>
	<path class="st0" d="M730.8,420.8c-5.5,34.1-31.1,57.8-78.5,57.8c-20.7,0-49.3-4.5-49.3-27.1c0-13.9,11.2-24.2,25.4-24.2
		c10.2,0,21.4,7.2,19.9,20.7c-9.2,1-13.9,7.5-13.9,13.9c0,7.2,5.5,14.4,19.2,14.4c19.4,0,25.4-14.4,29.9-37.6l17.9-92.9l-1-0.2
		c-16.7,63.8-33.1,78.7-59.5,78.7c-34.4,0-33.4-25.7-30.6-42.8l12.2-74.5c0.7-5-3.2-8.7-10.2-6.5l-0.7-0.7
		c8.7-4.2,26.2-9.7,38.1-9.7c14.2,0,19.2,5.2,16.4,22.2l-13,79.7c-2,11.7,0.2,18.9,8,18.9c15.2,0,27.4-28.6,36.6-65.8
		c4.2-17.2,11.2-49.3,2.7-53.6l0.7-0.7c33.9-2.5,50.3-2,44.1,38.4L730.8,420.8z"/>
	<path class="st0" d="M806,421.7l-0.7,0.7c-4.5,1.2-9.7,2-14.9,2c-17.2,0-34.6-8.5-29.1-39.1l13.9-78.5c0.7-5-3.2-8.7-10.2-6.5
		l-0.7-0.7c8.7-4.2,26.2-9.7,38.1-9.7c14.2,0,19.9,5.2,16.4,22.2L805,368.7l1,0.2c16.7-63.8,33.4-81,58.8-81
		c22.2,0,31.9,14,31.9,28.9c0,16.7-12.5,33.4-34.6,33.4c-11.2,0-21.9-7-20.4-21.9c9.2,0,18.4-8.7,18.4-20.4c0-7.7-4-12-9.7-12
		c-15.4,0-30.9,30.4-41.6,73.5C804.5,386.6,797.6,417.5,806,421.7z"/>
	<path class="st0" d="M1029.4,368.2c-3.5,21.4-6,49.3,5,53.6l-0.7,0.7c-5.7,1.2-11.7,1.7-17.7,1.7c-21.2,0-39.9-9-32.4-40.1
		l7.5-38.4l-1-0.2c-13.7,61.3-32.9,78.7-56.5,78.7c-23.7,0-36.9-14.9-36.9-41.8c0-40.4,28.1-92.4,80.2-92.4c7,0,11.5,0.5,16.9,2.2
		l-0.5,0.7c-30.9,1.5-51.1,65.5-52.1,105.4c-0.2,10.5,2.2,17.9,7.5,17.9c13.9,0,31.9-31.1,38.6-71.2l17.4-102.4
		c0.7-5-3.2-8.7-10.2-6.5l-0.7-0.7c8.7-4.2,26.2-9.7,38.1-9.7c14.2,0,19.7,5.2,16.9,22.2L1029.4,368.2z"/>
</g>
<path class="st1" d="M224.9,407c-24.6-31.4-39.6-64.1-47.3-83.8c-0.2-0.8-0.4-1.7-0.6-2.5c-1.2-5.1-2.3-10.4-3.3-15.8l-25.7-32
	l-4-31l20.6-30.7c0,0-5-28.4-0.7-25.7c0,0,11.9-43.4,83.6-67.9c63.8-21.7,113.8,9.4,137.2,49.8c-1-15.8-2.8-29.7-4.5-40.6
	C344.3,81.3,288.8,52,226.3,52C118.2,52,30.5,139.7,30.5,247.9c0,63.7,30.4,120.3,77.6,156.1C154,411.3,192.5,411.8,224.9,407z"/>
<path class="st1" d="M173.7,305c-0.2-1-0.3-1.9-0.5-2.9C173.5,304,173.7,305,173.7,305z"/>
<path class="st2" d="M177,320.8c0.2,0.8,0.4,1.7,0.6,2.5c7.7,19.7,22.7,52.3,47.3,83.8c4.3-0.6,8.5-1.4,12.6-2.2
	c-39.7-39.6-59.6-83.3-59.6-83.3L177,320.8z"/>
<path class="st3" d="M421.6,232.5c0.4,5.1,0.7,10.2,0.7,15.5v-14.6C422,233,421.8,232.7,421.6,232.5z"/>
<path class="st3" d="M384.7,167.4c-23.4-40.4-73.5-71.5-137.2-49.8c-71.8,24.4-83.6,67.9-83.6,67.9c-4.3-2.7-62,31-62,31l49.3,14.7
	l-34.2,6.5l56.8,67.3c0,0-0.2-1-0.5-2.9c-2.8-17.7-13.8-112.6,70.2-139.2c92.8-29.4,68.9,72.3,68.9,72.3s-14.3,61.2,29.1,109.7
	c18.9-23.7,30.3-51.6,36.7-80C385.9,230.7,386.5,196,384.7,167.4z"/>
<g>
	<path class="st1" d="M224.9,407c-32.3,4.8-70.9,4.3-116.8-3c32.9,25,73.9,39.8,118.3,39.8c10.4,0,20.6-0.8,30.6-2.4
		C244.8,430.6,234.1,418.9,224.9,407z"/>
	<path class="st1" d="M392.2,183c8.5,21.7,19.7,38.1,29.3,49.5c-3.1-39.7-18.1-76.1-41.4-105.6c1.7,10.9,3.5,24.8,4.5,40.6
		C387.6,172.5,390.2,177.7,392.2,183z"/>
	<path class="st4" d="M341.4,344.9c-22.5,28.1-55.6,50.3-103.9,60c11.5,11.5,24.7,22.6,39.6,32.3c39.7-10.6,74.4-33.4,99.9-64
		C362.1,364.7,350.5,355.1,341.4,344.9z"/>
	<path class="st2" d="M237.4,404.8c-4.1,0.8-8.3,1.5-12.6,2.2c9.3,11.9,19.9,23.6,32.1,34.4c6.9-1.1,13.6-2.5,20.2-4.3
		C262.2,427.5,249,416.3,237.4,404.8z"/>
	<path class="st3" d="M392.2,183c-2.1-5.3-4.6-10.5-7.6-15.6c1.8,28.6,1.2,63.3-6.6,97.5c10.9,18.3,21.4,36.9,30.4,54.9
		c8.8-22.3,13.7-46.5,13.7-71.9c0-5.2-0.3-10.4-0.7-15.5C412,221,400.8,204.7,392.2,183z"/>
	<path class="st3" d="M341.4,344.9c9.1,10.2,20.7,19.8,35.6,28.2c13.2-15.8,23.9-33.8,31.5-53.3c-9.1-18-19.5-36.6-30.4-54.9
		C371.7,293.2,360.3,321.2,341.4,344.9z"/>
</g>
<path class="st5" d="M108.1,404.1c0.2-0.6,0.7-0.2,1-0.2c9.9,1.6,19.8,2.8,29.7,3.8c14.7,1.5,29.5,2.2,44.3,2.1
	c17.9-0.2,35.6-1.8,53.2-5.2c16.4-3.1,32.1-8,47.2-15c18-8.4,33.9-19.6,47.7-33.8c11.4-11.8,20.7-25.1,28.2-39.7
	c8.2-16,14.2-32.9,18.1-50.4c2.4-10.8,4.3-21.8,5.5-32.8c1.6-14.4,2.3-28.8,2.1-43.3c-0.1-12.5-0.8-25-2.1-37.4
	c-0.8-8.2-1.8-16.4-3.1-24.6c0-0.2-0.2-0.6,0.2-0.7c0.5,0.1,0.7,0.5,1,0.8c6.6,8.5,12.5,17.5,17.6,27c5.8,10.7,10.5,21.8,14.3,33.4
	c3.5,11.1,6,22.4,7.6,33.9c0.6,4.9,1.1,9.8,1.1,14.7c0,1,0.1,2.1,0.1,3.1c0,0.4,0,0.8,0,1.2c0,0.5,0,1.1,0,1.6
	c0.1,0.7-0.1,1.5,0.1,2.2c0,2.2,0,4.3,0,6.5c-0.3,0.8-0.1,1.6-0.1,2.4c0,0.5,0,1.1,0,1.6c0,0.5,0,0.9,0,1.4c0,8.5-1.1,16.8-2.6,25.1
	c-2.2,12.5-5.7,24.7-10.2,36.6c-2.5,6.7-5.4,13.3-8.7,19.6c-4.5,8.7-9.6,17.1-15.4,25c-3.7,5.1-7.7,10.1-11.9,14.9
	c-3.7,4.2-7.6,8.2-11.6,12.1c-6.4,6.1-13.2,11.7-20.4,16.9c-6.4,4.6-13,8.8-19.9,12.7c-8.3,4.6-17,8.6-25.9,12
	c-5.8,2.2-11.8,4.2-17.8,5.7c-7.8,2-15.7,3.7-23.7,4.8c-5.7,0.8-11.3,1.5-17,1.5c-1.4,0-2.9,0.1-4.3,0.1c-0.7,0-1.4,0-2.1,0
	c-2.6,0-5.3,0-7.9,0c-0.8,0-1.6,0-2.3,0c-12.7,0-25.2-1.8-37.6-4.6c-10.3-2.3-20.4-5.5-30.2-9.5c-15-6.2-29.1-14-42.1-23.6
	C109.3,405.3,108.4,405,108.1,404.1z"/>
<path class="st1" d="M264.2,179.6c40.9,6.5,54.2,31.4,50,49c5.1-12.2,24.3-66.3-37.1-70.9c-69.3-5.3-91.3,51.8-91.3,51.8
	c0.4-0.3,0.7-0.5,1.1-0.8C198.6,195.9,230.3,174.2,264.2,179.6z"/>
<path class="st2" d="M313.1,231.1c0,0,0.4-0.9,1.1-2.5c4.2-17.6-7-40.2-39-49c-46.2-12.7-76.5,16.3-88.3,29
	C274.6,141.4,313.1,231.1,313.1,231.1z"/>
</svg>
