<svg xmlns="http://www.w3.org/2000/svg" width="89.845" height="89.845" viewBox="0 0 89.845 89.845">
  <path id="SelectFileIcon" d="M11.985,20.969H3V83.861a9.011,9.011,0,0,0,8.985,8.985H74.876V83.861H11.985ZM83.861,3H29.954a9.011,9.011,0,0,0-8.985,8.985V65.892a9.011,9.011,0,0,0,8.985,8.985H83.861a9.011,9.011,0,0,0,8.985-8.985V11.985A9.011,9.011,0,0,0,83.861,3ZM79.369,43.43H34.446V34.446H79.369ZM61.4,61.4H34.446V52.415H61.4ZM79.369,25.461H34.446V16.477H79.369Z" transform="translate(-3 -3)" fill="#002d4f"/>
</svg>
